<?xml version="1.0" encoding="UTF-8"?>
<svg width="500pt" height="500pt" version="1.1" viewBox="0 0 700 700" xmlns="http://www.w3.org/2000/svg" xmlns:xlink="http://www.w3.org/1999/xlink">
 <defs>
  <symbol id="u" overflow="visible">
   <path d="m7.9062-0.46875c-0.40625 0.21094-0.83594 0.36719-1.2812 0.46875-0.4375 0.11328-0.89844 0.17188-1.375 0.17188-1.4297 0-2.5625-0.39844-3.4062-1.2031-0.83594-0.80078-1.25-1.8906-1.25-3.2656s0.41406-2.4609 1.25-3.2656c0.84375-0.80078 1.9766-1.2031 3.4062-1.2031 0.47656 0 0.9375 0.058594 1.375 0.17188 0.44531 0.10547 0.875 0.26172 1.2812 0.46875v1.7812c-0.40625-0.28125-0.8125-0.48438-1.2188-0.60938-0.39844-0.13281-0.8125-0.20312-1.25-0.20312-0.79297 0-1.418 0.25781-1.875 0.76562-0.44922 0.5-0.67188 1.1992-0.67188 2.0938 0 0.88672 0.22266 1.5859 0.67188 2.0938 0.45703 0.51172 1.082 0.76562 1.875 0.76562 0.4375 0 0.85156-0.0625 1.25-0.1875 0.40625-0.13281 0.8125-0.34375 1.2188-0.625z"/>
  </symbol>
  <symbol id="e" overflow="visible">
   <path d="m5.7969-4.7031c-0.1875-0.082031-0.37109-0.14453-0.54688-0.1875-0.17969-0.039063-0.35547-0.0625-0.53125-0.0625-0.53125 0-0.94531 0.17188-1.2344 0.51562-0.28125 0.34375-0.42188 0.83594-0.42188 1.4688v2.9688h-2.0781v-6.4531h2.0781v1.0469c0.25781-0.41406 0.5625-0.71875 0.90625-0.90625 0.34375-0.19531 0.75391-0.29688 1.2344-0.29688 0.070313 0 0.14453 0.007813 0.21875 0.015625 0.082031 0 0.20312 0.011719 0.35938 0.03125z"/>
  </symbol>
  <symbol id="b" overflow="visible">
   <path d="m7.4375-3.25v0.59375h-4.8281c0.050781 0.48047 0.22656 0.84375 0.53125 1.0938 0.30078 0.24219 0.71875 0.35938 1.25 0.35938 0.4375 0 0.87891-0.0625 1.3281-0.1875 0.45703-0.13281 0.92969-0.33203 1.4219-0.59375v1.5938c-0.49219 0.1875-0.98047 0.32812-1.4688 0.42188-0.49219 0.09375-0.98047 0.14062-1.4688 0.14062-1.168 0-2.0781-0.29688-2.7344-0.89062-0.64844-0.59375-0.96875-1.4258-0.96875-2.5 0-1.0508 0.31641-1.8789 0.95312-2.4844 0.64453-0.60156 1.5234-0.90625 2.6406-0.90625 1.0078 0 1.8164 0.30859 2.4219 0.92188 0.61328 0.60547 0.92188 1.418 0.92188 2.4375zm-2.125-0.6875c0-0.38281-0.11719-0.69531-0.34375-0.9375-0.23047-0.25-0.52734-0.375-0.89062-0.375-0.39844 0-0.71875 0.11719-0.96875 0.34375-0.25 0.23047-0.40625 0.55469-0.46875 0.96875z"/>
  </symbol>
  <symbol id="d" overflow="visible">
   <path d="m3.8906-2.9062c-0.4375 0-0.76562 0.074219-0.98438 0.21875-0.21094 0.14844-0.3125 0.35938-0.3125 0.64062 0 0.26172 0.082031 0.46875 0.25 0.625 0.17578 0.14844 0.42188 0.21875 0.73438 0.21875 0.39453 0 0.72266-0.14062 0.98438-0.42188 0.25781-0.28125 0.39062-0.62891 0.39062-1.0469v-0.23438zm3.1562-0.78125v3.6875h-2.0938v-0.95312c-0.27344 0.38672-0.58594 0.67188-0.9375 0.85938-0.34375 0.17578-0.76172 0.26562-1.25 0.26562-0.66797 0-1.2148-0.19141-1.6406-0.57812-0.41797-0.39453-0.625-0.90625-0.625-1.5312 0-0.75781 0.25781-1.3164 0.78125-1.6719 0.53125-0.35156 1.3516-0.53125 2.4688-0.53125h1.2031v-0.15625c0-0.32031-0.13281-0.5625-0.39062-0.71875-0.25-0.15625-0.64844-0.23438-1.1875-0.23438-0.44922 0-0.86719 0.046875-1.25 0.14062-0.375 0.085937-0.72656 0.21484-1.0469 0.39062v-1.5625c0.4375-0.11328 0.87891-0.19531 1.3281-0.25 0.44531-0.050781 0.89453-0.078125 1.3438-0.078125 1.1562 0 1.9922 0.23047 2.5156 0.6875 0.51953 0.46094 0.78125 1.2031 0.78125 2.2344z"/>
  </symbol>
  <symbol id="c" overflow="visible">
   <path d="m3.25-8.2969v1.8438h2.125v1.4688h-2.125v2.7344c0 0.30469 0.054688 0.50781 0.17188 0.60938 0.125 0.10547 0.36328 0.15625 0.71875 0.15625h1.0625v1.4844h-1.7812c-0.8125 0-1.3906-0.16406-1.7344-0.5-0.33594-0.34375-0.5-0.92578-0.5-1.75v-2.7344h-1.0312v-1.4688h1.0312v-1.8438z"/>
  </symbol>
  <symbol id="k" overflow="visible">
   <path d="m5.3906-5.5156v-3.4531h2.0781v8.9688h-2.0781v-0.9375c-0.29297 0.38672-0.60938 0.66797-0.95312 0.84375-0.33594 0.17578-0.72656 0.26562-1.1719 0.26562-0.80469 0-1.4609-0.31641-1.9688-0.95312-0.51172-0.63281-0.76562-1.4453-0.76562-2.4375 0-1 0.25391-1.8125 0.76562-2.4375 0.50781-0.63281 1.1641-0.95312 1.9688-0.95312 0.4375 0 0.82812 0.089844 1.1719 0.26562 0.34375 0.17969 0.66016 0.45312 0.95312 0.82812zm-1.3594 4.1875c0.4375 0 0.76953-0.16016 1-0.48438 0.23828-0.32031 0.35938-0.78906 0.35938-1.4062 0-0.61328-0.12109-1.082-0.35938-1.4062-0.23047-0.32031-0.5625-0.48438-1-0.48438s-0.77734 0.16406-1.0156 0.48438c-0.23047 0.32422-0.34375 0.79297-0.34375 1.4062 0 0.61719 0.11328 1.0859 0.34375 1.4062 0.23828 0.32422 0.57812 0.48438 1.0156 0.48438z"/>
  </symbol>
  <symbol id="j" overflow="visible">
   <path d="m4.4375-1.3281c0.4375 0 0.76953-0.16016 1-0.48438 0.23828-0.32031 0.35938-0.78906 0.35938-1.4062 0-0.61328-0.12109-1.082-0.35938-1.4062-0.23047-0.32031-0.5625-0.48438-1-0.48438-0.44922 0-0.79297 0.16406-1.0312 0.48438-0.23047 0.32422-0.34375 0.79297-0.34375 1.4062 0 0.60547 0.11328 1.0742 0.34375 1.4062 0.23828 0.32422 0.58203 0.48438 1.0312 0.48438zm-1.375-4.1875c0.28125-0.375 0.59375-0.64844 0.9375-0.82812 0.34375-0.17578 0.74219-0.26562 1.2031-0.26562 0.78906 0 1.4414 0.32031 1.9531 0.95312 0.50781 0.625 0.76562 1.4375 0.76562 2.4375 0 0.99219-0.25781 1.8047-0.76562 2.4375-0.51172 0.63672-1.1641 0.95312-1.9531 0.95312-0.46094 0-0.85938-0.089844-1.2031-0.26562-0.34375-0.1875-0.65625-0.46875-0.9375-0.84375v0.9375h-2.0781v-8.9688h2.0781z"/>
  </symbol>
  <symbol id="g" overflow="visible">
   <path d="m0.14062-6.4531h2.0625l1.7344 4.375 1.4844-4.375h2.0625l-2.7188 7.0625c-0.27344 0.71875-0.58984 1.2188-0.95312 1.5-0.36719 0.28906-0.84375 0.4375-1.4375 0.4375h-1.1875v-1.3594h0.64062c0.35156 0 0.60938-0.058594 0.76562-0.17188 0.15625-0.10547 0.28125-0.30469 0.375-0.59375l0.046875-0.17188z"/>
  </symbol>
  <symbol id="i" overflow="visible">
   <path d="m8.8281-0.64062c-0.55469 0.27344-1.1328 0.47656-1.7344 0.60938-0.59375 0.13281-1.2109 0.20312-1.8438 0.20312-1.4297 0-2.5625-0.39844-3.4062-1.2031-0.83594-0.80078-1.25-1.8906-1.25-3.2656 0-1.3828 0.42578-2.4727 1.2812-3.2656 0.85156-0.80078 2.0195-1.2031 3.5-1.2031 0.57031 0 1.1172 0.058594 1.6406 0.17188 0.53125 0.10547 1.0234 0.26172 1.4844 0.46875v1.7812c-0.48047-0.26953-0.96094-0.47266-1.4375-0.60938-0.46875-0.13281-0.94531-0.20312-1.4219-0.20312-0.88672 0-1.5703 0.25-2.0469 0.75-0.46875 0.49219-0.70312 1.1953-0.70312 2.1094 0 0.90625 0.22656 1.6094 0.6875 2.1094 0.45703 0.5 1.1133 0.75 1.9688 0.75 0.22656 0 0.44141-0.015625 0.64062-0.046875 0.19531-0.03125 0.375-0.078125 0.53125-0.14062v-1.6719h-1.3594v-1.4844h3.4688z"/>
  </symbol>
  <symbol id="f" overflow="visible">
   <path d="m7.4844-3.9375v3.9375h-2.0781v-3.0156c0-0.55078-0.015625-0.92969-0.046875-1.1406-0.023437-0.21875-0.058594-0.375-0.10938-0.46875-0.085938-0.13281-0.19922-0.23828-0.34375-0.3125-0.13672-0.082031-0.29297-0.125-0.46875-0.125-0.42969 0-0.76562 0.16797-1.0156 0.5-0.24219 0.33594-0.35938 0.79688-0.35938 1.3906v3.1719h-2.0781v-6.4531h2.0781v0.9375c0.3125-0.375 0.64062-0.64844 0.98438-0.82812 0.35156-0.17578 0.73828-0.26562 1.1562-0.26562 0.75 0 1.3164 0.23047 1.7031 0.6875 0.38281 0.44922 0.57812 1.1094 0.57812 1.9844z"/>
  </symbol>
  <symbol id="t" overflow="visible">
   <path d="m1.0781-8.6094h2.2344v3.1406l3.1875-3.1406h2.5781l-4.1406 4.0781 4.5781 4.5312h-2.7812l-3.4219-3.3906v3.3906h-2.2344z"/>
  </symbol>
  <symbol id="h" overflow="visible">
   <path d="m7.4844-3.9375v3.9375h-2.0781v-3c0-0.5625-0.015625-0.94531-0.046875-1.1562-0.023437-0.21875-0.058594-0.375-0.10938-0.46875-0.085938-0.13281-0.19922-0.23828-0.34375-0.3125-0.13672-0.082031-0.29297-0.125-0.46875-0.125-0.42969 0-0.76562 0.16797-1.0156 0.5-0.24219 0.33594-0.35938 0.79688-0.35938 1.3906v3.1719h-2.0781v-8.9688h2.0781v3.4531c0.3125-0.375 0.64062-0.64844 0.98438-0.82812 0.35156-0.17578 0.73828-0.26562 1.1562-0.26562 0.75 0 1.3164 0.23047 1.7031 0.6875 0.38281 0.44922 0.57812 1.1094 0.57812 1.9844z"/>
  </symbol>
  <symbol id="a" overflow="visible">
   <path d="m4.0625-5.1406c-0.46094 0-0.80859 0.16797-1.0469 0.5-0.24219 0.32422-0.35938 0.79688-0.35938 1.4219 0 0.61719 0.11719 1.0898 0.35938 1.4219 0.23828 0.32422 0.58594 0.48438 1.0469 0.48438 0.44531 0 0.78906-0.16016 1.0312-0.48438 0.23828-0.33203 0.35938-0.80469 0.35938-1.4219 0-0.625-0.12109-1.0977-0.35938-1.4219-0.24219-0.33203-0.58594-0.5-1.0312-0.5zm0-1.4688c1.1133 0 1.9844 0.30469 2.6094 0.90625 0.625 0.59375 0.9375 1.4219 0.9375 2.4844s-0.3125 1.8984-0.9375 2.5c-0.625 0.59375-1.4961 0.89062-2.6094 0.89062-1.1172 0-1.9922-0.29688-2.625-0.89062-0.625-0.60156-0.9375-1.4375-0.9375-2.5s0.3125-1.8906 0.9375-2.4844c0.63281-0.60156 1.5078-0.90625 2.625-0.90625z"/>
  </symbol>
  <symbol id="s" overflow="visible">
   <path d="m1.0781-8.6094h2.2344v6.9375h3.8906v1.6719h-6.125z"/>
  </symbol>
  <symbol id="r" overflow="visible">
   <path d="m5.25-8.9688v1.3438h-1.1562c-0.29297 0-0.49609 0.058594-0.60938 0.17188-0.11719 0.10547-0.17188 0.28906-0.17188 0.54688v0.45312h1.7656v1.4688h-1.7656v4.9844h-2.0625v-4.9844h-1.0312v-1.4688h1.0312v-0.45312c0-0.70703 0.19141-1.2266 0.57812-1.5625 0.39453-0.33203 1.0039-0.5 1.8281-0.5z"/>
  </symbol>
  <symbol id="q" overflow="visible">
   <path d="m6.9844-5.3906c0.25781-0.39453 0.56641-0.69531 0.92188-0.90625 0.36328-0.20703 0.75781-0.3125 1.1875-0.3125 0.73828 0 1.3008 0.23047 1.6875 0.6875 0.39453 0.44922 0.59375 1.1094 0.59375 1.9844v3.9375h-2.0781v-3.375-0.14062c0.007813-0.0625 0.015625-0.14062 0.015625-0.23438 0-0.45703-0.070312-0.78906-0.20312-1-0.13672-0.20703-0.35547-0.3125-0.65625-0.3125-0.38672 0-0.6875 0.16406-0.90625 0.48438-0.21094 0.32422-0.32031 0.79297-0.32812 1.4062v3.1719h-2.0781v-3.375c0-0.70703-0.0625-1.1641-0.1875-1.375-0.125-0.20703-0.34375-0.3125-0.65625-0.3125-0.39844 0-0.70312 0.16797-0.92188 0.5-0.21094 0.32422-0.3125 0.78906-0.3125 1.3906v3.1719h-2.0781v-6.4531h2.0781v0.9375c0.25-0.36328 0.53516-0.63281 0.85938-0.8125 0.33203-0.1875 0.69531-0.28125 1.0938-0.28125 0.44531 0 0.84375 0.10938 1.1875 0.32812 0.34375 0.21094 0.60156 0.50781 0.78125 0.89062z"/>
  </symbol>
  <symbol id="p" overflow="visible">
   <path d="m1.0781-8.6094h2.4844l3.1406 5.9062v-5.9062h2.0938v8.6094h-2.4688l-3.1406-5.9062v5.9062h-2.1094z"/>
  </symbol>
  <symbol id="o" overflow="visible">
   <path d="m0.92188-2.5156v-3.9375h2.0781v0.64062c0 0.34375-0.007812 0.78125-0.015625 1.3125v1.0625c0 0.52344 0.007813 0.89844 0.03125 1.125 0.03125 0.23047 0.082031 0.39844 0.15625 0.5 0.082031 0.13672 0.19141 0.24219 0.32812 0.3125 0.13281 0.074219 0.28906 0.10938 0.46875 0.10938 0.42578 0 0.76562-0.16406 1.0156-0.5 0.25-0.33203 0.375-0.78906 0.375-1.375v-3.1875h2.0625v6.4531h-2.0625v-0.9375c-0.3125 0.375-0.64844 0.65625-1 0.84375-0.34375 0.17578-0.72656 0.26562-1.1406 0.26562-0.75 0-1.3242-0.22656-1.7188-0.6875-0.38672-0.45703-0.57812-1.125-0.57812-2z"/>
  </symbol>
  <symbol id="n" overflow="visible">
   <path d="m1.0781-8.6094h3.6875c1.0938 0 1.9297 0.24609 2.5156 0.73438 0.59375 0.48047 0.89062 1.1719 0.89062 2.0781 0 0.89844-0.29688 1.5898-0.89062 2.0781-0.58594 0.49219-1.4219 0.73438-2.5156 0.73438h-1.4531v2.9844h-2.2344zm2.2344 1.6094v2.4062h1.2188c0.42578 0 0.75781-0.10156 1-0.3125 0.23828-0.20703 0.35938-0.50391 0.35938-0.89062 0-0.38281-0.12109-0.67969-0.35938-0.89062-0.24219-0.20703-0.57422-0.3125-1-0.3125z"/>
  </symbol>
  <symbol id="m" overflow="visible">
   <path d="m0.98438-6.4531h2.0781v6.3438c0 0.86328-0.21094 1.5195-0.625 1.9688-0.41797 0.45703-1.0234 0.6875-1.8125 0.6875h-1.0156v-1.3594h0.35938c0.38281 0 0.64844-0.089844 0.79688-0.26562 0.14453-0.17969 0.21875-0.52344 0.21875-1.0312zm0-2.5156h2.0781v1.6719h-2.0781z"/>
  </symbol>
  <symbol id="l" overflow="visible">
   <path d="m6.2188-6.2656v1.6875c-0.28125-0.1875-0.57031-0.32812-0.85938-0.42188-0.28125-0.09375-0.57422-0.14062-0.875-0.14062-0.57422 0-1.0234 0.17188-1.3438 0.51562-0.32422 0.33594-0.48438 0.80469-0.48438 1.4062 0 0.60547 0.16016 1.0742 0.48438 1.4062 0.32031 0.33594 0.76953 0.5 1.3438 0.5 0.32031 0 0.62891-0.046875 0.92188-0.14062 0.28906-0.09375 0.5625-0.23438 0.8125-0.42188v1.6875c-0.32422 0.11719-0.65234 0.20312-0.98438 0.26562-0.33594 0.0625-0.66797 0.09375-1 0.09375-1.168 0-2.0859-0.29688-2.75-0.89062-0.65625-0.60156-0.98438-1.4375-0.98438-2.5 0-1.0703 0.32812-1.9062 0.98438-2.5 0.66406-0.59375 1.582-0.89062 2.75-0.89062 0.33203 0 0.66016 0.03125 0.98438 0.09375 0.33203 0.054687 0.66406 0.13672 1 0.25z"/>
  </symbol>
 </defs>
 <g>
  <path d="m404.73 345.87c0.75 0 1.5117-0.058594 2.2773-0.18359 7.7344-1.25 12.984-8.5312 11.734-16.258-2.7109-16.781-5.0078-37.613-5.0039-58.676-0.074219-26.434 3.7969-53.109 13.57-72.309 1.4141 2.0547 3.1055 4.6602 4.8984 7.6875 10.695-19.207 14.129-47.406 15.23-63.578-4.0625 1.6328-7.9258 3.5234-11.562 5.6914-20.781 12.352-33.496 32.352-40.777 53.969-7.3242 21.727-9.6992 45.59-9.7188 68.535 0.003906 23.094 2.4727 45.266 5.3633 63.195 1.1328 6.9727 7.1562 11.926 13.988 11.926z"/>
  <path d="m446.32 248.02c0.082031 2.043 0.058593 4.0898-0.10156 6.1328-1.9297 24.492-15.809 34.273-18.672 57.219-0.12109 0.45703-0.23047 0.96484-0.33203 1.4961 9.0078 2.9219 32.449 9.582 58.902 9.582s49.895-6.6602 58.902-9.582c-0.10547-0.52734-0.21094-1.0352-0.33203-1.4922-2.8555-22.949-16.746-32.73-18.664-57.223-0.15234-1.9531-0.22266-4.0039-0.22266-6.1211-9.4258 0.86719-25.039 2.0586-39.68 2.0586-14.703-0.003906-30.387-1.2031-39.801-2.0703z"/>
  <path d="m534.36 193.48c2.4414-9.6094 4.6641-16.957 5.4922-19.641 1.293 0.45312 2.5977 0.89844 3.8438 1.3594 7.875 2.8984 14.848 5.8633 21.227 8.293 6.4883 2.3516 11.988 4.5586 19.48 4.7227 2.7617 0 5.9727-0.41406 9.2656-1.8711 5.0625-2.1133 9.1641-6.9844 10.805-11.426 1.7695-4.5078 2.1445-8.6875 2.1797-13.121-0.050782-8.8711-1.832-19.387-5.0742-34.129-3.2695-14.68-8.1055-33.367-14.605-57.316-2.0547-7.5547-9.8438-12.02-17.398-9.9648-0.22656 0.0625-0.44531 0.14453-0.66406 0.21484-3.5742-3.5664-19.199-7.9141-39.883-11.191-6.6289-11.457-17.75-20.281-31.652-23.516-26.684-6.2109-53.352 10.379-59.57 37.062-6.2227 26.688 10.379 53.352 37.066 59.57 26.684 6.2109 53.348-10.383 59.566-37.066 0.84766-3.6406 1.2305-7.2734 1.2656-10.859-6.2383-1.7773-12.945-3.5469-19.902-5.0742-16.172-3.5547-30.543-7.7305-40.582-11.562 9.7188 2.2461 22.035 4.3398 35.512 5.8945 16.855 1.9453 32.141 2.6641 42.926 2.2383 3.2461-0.12891 6.0859-0.35938 8.4336-0.69141-1 1.293-1.7812 2.7539-2.2852 4.3164-0.82422 2.5273-0.94922 5.3125-0.19922 8.0703h-0.003907c0.40625 1.5039 0.78906 2.9219 1.1797 4.3828 5.8438 21.633 10.223 38.672 13.113 51.668 2.4414 10.855 3.7891 19.043 4.2305 24.312-1.8672-0.65234-4.0508-1.4727-6.4414-2.4336-11.18-4.3945-27.125-11.293-47.059-15.762 0.73438 12.559 2.957 34.75 9.7344 53.52z"/>
  <path d="m486.12 183.62c17.836 0 24.719-18.078 26.984-45.902-8.4102-1.3359-17.422-2.1523-26.984-2.1484-9.6328-0.011718-18.613 1.0781-26.906 3.1602 2.3555 27.254 9.2852 44.891 26.906 44.891z"/>
  <path d="m430.27 360.2-10.637 174.73c-0.79297 13.027 9.1211 24.23 22.152 25.023 13.023 0.79297 24.23-9.1211 25.02-22.152l10.039-164.92c-8.5391-5.1484-23.426-11.398-46.574-12.684z"/>
  <path d="m495.4 372.88 10.039 164.92c0.78906 13.027 11.992 22.941 25.02 22.152 13.031-0.79297 22.941-11.992 22.152-25.023l-10.637-174.73c-23.152 1.2852-38.039 7.5352-46.574 12.684z"/>
  <path d="m116.91 165.66c8.3047 4.0508 16.691 5.1367 24.488 5.1602 10.898-0.058594 21.195-2.1797 30.094-4.7148v55.957c17.469-30.031 13.047-87.301 11.664-101.16-1.7695 0.6875-3.4102 1.6328-4.8633 2.8047-2.8203 1.1914-7.0273 2.8633-11.898 4.4531-8.0352 2.6758-17.996 4.9258-25 4.8594-5.4414 0.042969-8.168-1.2969-8.4648-1.6875-0.25-0.24609-0.38672-0.28906-0.82812-1.2812-0.39453-0.98438-0.95312-3.0547-0.95312-6.6836-0.15234-9.375 4.3672-28.398 18.062-56.863 0.27734-0.57422 0.53125-1.125 0.81641-1.707 2.0781-4.3047 2.3633-9.0039 1.1797-13.273-0.54297-1.957-1.3945-3.8164-2.5312-5.5117 2.8672 0.42188 6.3633 0.71094 10.379 0.87109 12.914 0.51172 31.219-0.35156 51.398-2.6836 16.129-1.8594 30.867-4.3633 42.504-7.0508-12.016 4.5898-29.219 9.5859-48.574 13.84-7.7227 1.6992-15.18 3.6406-22.184 5.6133 0.78516 12.145 5.6914 24.086 14.812 33.516 20.422 21.094 54.062 21.645 75.16 1.2305 21.102-20.414 21.648-54.07 1.2383-75.16-20.422-21.09-54.07-21.645-75.168-1.2266-3.707 3.5859-6.7422 7.6016-9.1758 11.867-1.9766 0.30859-3.9062 0.62891-5.8047 0.95312-20.977 3.6094-36.793 8.082-41.758 11.91-0.085937-0.042968-0.16797-0.097656-0.25781-0.14062-9.3984-4.543-20.703-0.61328-25.25 8.7852-15.473 32.234-22.5 55.441-22.652 75.031 0 7.4258 1.1211 14.445 3.7305 20.887 3.8047 9.7305 11.543 17.477 19.836 21.41z"/>
  <path d="m299.31 222.08v-31.703c0.15234 0.42969 0.30469 0.82422 0.45703 1.2656 8.6562 25.008 16.973 67.488 19.762 136.56 0.41406 10.168 8.7891 18.133 18.875 18.133 0.26172 0 0.52344-0.003907 0.78516-0.015626 10.43-0.42578 18.539-9.2266 18.117-19.652-3.8945-93.312-16.969-142.65-31.926-171.09-7.5156-14.164-15.82-23.199-24.016-28.617-4.6875-3.1367-9.2383-4.8906-13.113-5.8242-0.19922-0.085938-0.41016-0.15625-0.61328-0.23438-1.3789 13.859-5.8008 71.141 11.672 101.18z"/>
  <path d="m235.4 204.05c26.5 0 35.473-33.676 37.828-84.391l-75.656-0.003906c2.3555 50.715 11.328 84.395 37.828 84.395z"/>
  <path d="m157.55 528.9c-1.043 16.102 11.168 29.996 27.262 31.039 16.102 1.0391 30-11.156 31.043-27.262l5.5859-86.266-58.062-7.4922z"/>
  <path d="m254.96 532.67c1.043 16.109 14.941 28.305 31.043 27.262 16.094-1.0391 28.305-14.934 27.262-31.039l-5.8281-89.984-58.062 7.4922z"/>
  <path d="m235.4 310.77c-28.969 0-60.715-3.9453-65.977-4.625l-14.906 122.96 1.0352 0.13281 72.215 9.3164 7.6328-69.703 7.6328 69.703 72.215-9.3164 1.0352-0.13281-14.906-122.96c-5.2617 0.68359-37.004 4.625-65.977 4.625z"/>
  <use x="93.347656" y="595.441406" xlink:href="#u"/>
  <use x="102.019531" y="595.441406" xlink:href="#e"/>
  <use x="107.84375" y="595.441406" xlink:href="#b"/>
  <use x="115.859375" y="595.441406" xlink:href="#d"/>
  <use x="123.828125" y="595.441406" xlink:href="#c"/>
  <use x="129.476562" y="595.441406" xlink:href="#b"/>
  <use x="137.488281" y="595.441406" xlink:href="#k"/>
  <use x="150.058594" y="595.441406" xlink:href="#j"/>
  <use x="158.515625" y="595.441406" xlink:href="#g"/>
  <use x="170.332031" y="595.441406" xlink:href="#i"/>
  <use x="180.027344" y="595.441406" xlink:href="#d"/>
  <use x="188" y="595.441406" xlink:href="#f"/>
  <use x="200.523438" y="595.441406" xlink:href="#t"/>
  <use x="209.679688" y="595.441406" xlink:href="#h"/>
  <use x="218.089844" y="595.441406" xlink:href="#a"/>
  <use x="226.207031" y="595.441406" xlink:href="#a"/>
  <use x="234.324219" y="595.441406" xlink:href="#f"/>
  <use x="246.847656" y="595.441406" xlink:href="#s"/>
  <use x="254.375" y="595.441406" xlink:href="#d"/>
  <use x="262.347656" y="595.441406" xlink:href="#g"/>
  <use x="93.347656" y="607.257812" xlink:href="#r"/>
  <use x="98.488281" y="607.257812" xlink:href="#e"/>
  <use x="104.316406" y="607.257812" xlink:href="#a"/>
  <use x="112.429688" y="607.257812" xlink:href="#q"/>
  <use x="128.855469" y="607.257812" xlink:href="#c"/>
  <use x="134.5" y="607.257812" xlink:href="#h"/>
  <use x="142.914062" y="607.257812" xlink:href="#b"/>
  <use x="155.039062" y="607.257812" xlink:href="#p"/>
  <use x="164.925781" y="607.257812" xlink:href="#a"/>
  <use x="173.042969" y="607.257812" xlink:href="#o"/>
  <use x="181.453125" y="607.257812" xlink:href="#f"/>
  <use x="193.976562" y="607.257812" xlink:href="#n"/>
  <use x="202.636719" y="607.257812" xlink:href="#e"/>
  <use x="208.460938" y="607.257812" xlink:href="#a"/>
  <use x="216.578125" y="607.257812" xlink:href="#m"/>
  <use x="220.628906" y="607.257812" xlink:href="#b"/>
  <use x="228.640625" y="607.257812" xlink:href="#l"/>
  <use x="235.644531" y="607.257812" xlink:href="#c"/>
 </g>
</svg>
